<?xml version="1.0" encoding="UTF-8" standalone="no"?>
<!-- Created with Inkscape (http://www.inkscape.org/) -->

<svg
   xmlns:dc="http://purl.org/dc/elements/1.1/"
   xmlns:cc="http://creativecommons.org/ns#"
   xmlns:rdf="http://www.w3.org/1999/02/22-rdf-syntax-ns#"
   xmlns:svg="http://www.w3.org/2000/svg"
   xmlns="http://www.w3.org/2000/svg"
   xmlns:sodipodi="http://sodipodi.sourceforge.net/DTD/sodipodi-0.dtd"
   xmlns:inkscape="http://www.inkscape.org/namespaces/inkscape"
   version="1.1"
   id="svg2"
   xml:space="preserve"
   width="793.33331"
   height="1122.6667"
   viewBox="0 0 793.33331 1122.6667"
   sodipodi:docname="02_countries.svg"
   inkscape:version="0.92.1 r15371"><metadata
     id="metadata8"><rdf:RDF><cc:Work
         rdf:about=""><dc:format>image/svg+xml</dc:format><dc:type
           rdf:resource="http://purl.org/dc/dcmitype/StillImage" /><dc:title></dc:title></cc:Work></rdf:RDF></metadata><defs
     id="defs6"><clipPath
       clipPathUnits="userSpaceOnUse"
       id="clipPath20"><path
         d="M 0,0 V 4230 H 5950 V 0 Z"
         id="path18"
         inkscape:connector-curvature="0" /></clipPath><clipPath
       clipPathUnits="userSpaceOnUse"
       id="clipPath30"><path
         d="m 590.398,734.398 h 5077.2 v 2905.2 h -5077.2 z"
         id="path28"
         inkscape:connector-curvature="0" /></clipPath><clipPath
       clipPathUnits="userSpaceOnUse"
       id="clipPath44"><path
         d="M 0,0 V 4230 H 5950 V 0 Z"
         id="path42"
         inkscape:connector-curvature="0" /></clipPath><clipPath
       clipPathUnits="userSpaceOnUse"
       id="clipPath60"><path
         d="m 590.398,734.398 h 5077.2 v 2905.2 h -5077.2 z"
         id="path58"
         inkscape:connector-curvature="0" /></clipPath><clipPath
       clipPathUnits="userSpaceOnUse"
       id="clipPath74"><path
         d="M 0,0 V 4230 H 5950 V 0 Z"
         id="path72"
         inkscape:connector-curvature="0" /></clipPath><clipPath
       clipPathUnits="userSpaceOnUse"
       id="clipPath90"><path
         d="m 590.398,734.398 h 5077.2 v 2905.2 h -5077.2 z"
         id="path88"
         inkscape:connector-curvature="0" /></clipPath><clipPath
       clipPathUnits="userSpaceOnUse"
       id="clipPath104"><path
         d="M 0,0 V 4230 H 5950 V 0 Z"
         id="path102"
         inkscape:connector-curvature="0" /></clipPath><clipPath
       clipPathUnits="userSpaceOnUse"
       id="clipPath120"><path
         d="m 590.398,734.398 h 5077.2 v 2905.2 h -5077.2 z"
         id="path118"
         inkscape:connector-curvature="0" /></clipPath><clipPath
       clipPathUnits="userSpaceOnUse"
       id="clipPath134"><path
         d="M 0,0 V 4230 H 5950 V 0 Z"
         id="path132"
         inkscape:connector-curvature="0" /></clipPath><clipPath
       clipPathUnits="userSpaceOnUse"
       id="clipPath150"><path
         d="m 590.398,734.398 h 5077.2 v 2905.2 h -5077.2 z"
         id="path148"
         inkscape:connector-curvature="0" /></clipPath><clipPath
       clipPathUnits="userSpaceOnUse"
       id="clipPath164"><path
         d="M 0,0 V 4230 H 5950 V 0 Z"
         id="path162"
         inkscape:connector-curvature="0" /></clipPath><clipPath
       clipPathUnits="userSpaceOnUse"
       id="clipPath180"><path
         d="m 590.398,734.398 h 5077.2 v 2905.2 h -5077.2 z"
         id="path178"
         inkscape:connector-curvature="0" /></clipPath><clipPath
       clipPathUnits="userSpaceOnUse"
       id="clipPath194"><path
         d="M 0,0 V 4230 H 5950 V 0 Z"
         id="path192"
         inkscape:connector-curvature="0" /></clipPath><clipPath
       clipPathUnits="userSpaceOnUse"
       id="clipPath210"><path
         d="m 590.398,734.398 h 5077.2 v 2905.2 h -5077.2 z"
         id="path208"
         inkscape:connector-curvature="0" /></clipPath><clipPath
       clipPathUnits="userSpaceOnUse"
       id="clipPath224"><path
         d="M 0,0 V 4230 H 5950 V 0 Z"
         id="path222"
         inkscape:connector-curvature="0" /></clipPath></defs><sodipodi:namedview
     pagecolor="#ffffff"
     bordercolor="#666666"
     borderopacity="1"
     objecttolerance="10"
     gridtolerance="10"
     guidetolerance="10"
     inkscape:pageopacity="0"
     inkscape:pageshadow="2"
     inkscape:window-width="1920"
     inkscape:window-height="1033"
     id="namedview4"
     showgrid="false"
     inkscape:zoom="1.1891486"
     inkscape:cx="438.38491"
     inkscape:cy="258.87265"
     inkscape:window-x="-4"
     inkscape:window-y="-4"
     inkscape:window-maximized="1"
     inkscape:current-layer="g14" /><g
     id="g10"
     inkscape:groupmode="layer"
     inkscape:label="ink_ext_XXXXXX"
     transform="matrix(1.3333333,0,0,-1.3333333,0,1122.6667)"><g
       id="g12"
       transform="scale(0.1)"><g
         id="g14"
         transform="matrix(0.78528405,0,0,0.59742339,826.2214,946.05503)"><g
           id="g16"
           clip-path="url(#clipPath20)"><path
             d="M 0,0 H 5970 V 4230 H 0 Z"
             style="fill:#ffffff;fill-opacity:1;fill-rule:nonzero;stroke:none"
             id="path22"
             inkscape:connector-curvature="0" /></g></g><g
         id="g24"><g
           id="g26"
           clip-path="url(#clipPath30)"><path
             d="m 4205,2187 -0.6,34.5 -1.6,34.4 -2.8,34.4 -3.8,34.3 -5,34.1 -6,34 -7.2,33.7 -8.2,33.5 -9.3,33.3 -10.3,32.9 -11.4,32.5 -12.4,32.2 -13.5,31.7 -14.5,31.4 -15.4,30.8 -16.5,30.3 -17.4,29.8 -18.3,29.2 -19.3,28.6 -20.2,28 -21,27.3 -22,26.6 -22.8,25.9 -23.6,25.2 -24.3,24.3 -25.2,23.6 -25.9,22.8 -26.6,22 -27.3,21 -28,20.2 -28.6,19.3 -29.2,18.3 -29.8,17.4 -30.3,16.5 -30.8,15.4 -31.4,14.5 -31.7,13.5 -32.2,12.4 -32.5,11.4 -32.9,10.3 -33.3,9.3 -33.5,8.2 -33.7,7.2 -34,6 -34.1,5 -34.3,3.8 -34.4,2.8 -34.4,1.6 -34.5,0.6 V 2187"
             style="fill:#ffffff;fill-opacity:1;fill-rule:nonzero;stroke:none"
             id="path32"
             inkscape:connector-curvature="0" /><path
             d="m 4205,2187 -0.6,34.5 -1.6,34.4 -2.8,34.4 -3.8,34.3 -5,34.1 -6,34 -7.2,33.7 -8.2,33.5 -9.3,33.3 -10.3,32.9 -11.4,32.5 -12.4,32.2 -13.5,31.7 -14.5,31.4 -15.4,30.8 -16.5,30.3 -17.4,29.8 -18.3,29.2 -19.3,28.6 -20.2,28 -21,27.3 -22,26.6 -22.8,25.9 -23.6,25.2 -24.3,24.3 -25.2,23.6 -25.9,22.8 -26.6,22 -27.3,21 -28,20.2 -28.6,19.3 -29.2,18.3 -29.8,17.4 -30.3,16.5 -30.8,15.4 -31.4,14.5 -31.7,13.5 -32.2,12.4 -32.5,11.4 -32.9,10.3 -33.3,9.3 -33.5,8.2 -33.7,7.2 -34,6 -34.1,5 -34.3,3.8 -34.4,2.8 -34.4,1.6 -34.5,0.6 V 2187 Z"
             style="fill:none;stroke:#000000;stroke-width:7.5;stroke-linecap:round;stroke-linejoin:round;stroke-miterlimit:10;stroke-dasharray:none;stroke-opacity:1"
             id="path34"
             inkscape:connector-curvature="0" /><path
             d="m 3889.8,2947.8 38.1,38.1"
             style="fill:none;stroke:#000000;stroke-width:7.5;stroke-linecap:round;stroke-linejoin:round;stroke-miterlimit:10;stroke-dasharray:none;stroke-opacity:1"
             id="path36"
             inkscape:connector-curvature="0" /></g></g><g
         id="g38"><g
           id="g40"
           clip-path="url(#clipPath44)"><g
             id="g46"
             transform="scale(10)"><text
               transform="matrix(1,0,0,-1,396.59,305.29)"
               style="font-variant:normal;font-weight:normal;font-size:12px;font-family:Helvetica;-inkscape-font-specification:Helvetica;writing-mode:lr-tb;fill:#000000;fill-opacity:1;fill-rule:nonzero;stroke:none"
               id="text52"><tspan
                 x="0 8.0039997 18 24.672001 28.848028 31.51203 37.512028 44.184029 50.85603 54.192028 58.18803 64.860031 68.19603 74.868027 81.540031 85.536026 91.536026 98.208031 104.88003 108.87603 114.87603 118.87203"
                 y="0"
                 sodipodi:role="line"
                 id="tspan48">American (5 person(s))</tspan><tspan
                 x="0 6.6719999 13.344"
                 y="14.4"
                 sodipodi:role="line"
                 id="tspan50">25%</tspan></text>
</g></g></g><g
         id="g54"><g
           id="g56"
           clip-path="url(#clipPath60)"><path
             d="m 3129,3263 -37.6,-0.7 -37.5,-1.9 -37.4,-3.3 -37.2,-4.6 -37.1,-5.8 -36.9,-7.2 -36.6,-8.5 -36.3,-9.7 -35.9,-11 -35.5,-12.2 -35.1,-13.5 -34.5,-14.6 -34.1,-15.9 -33.5,-17 -32.8,-18.3 -32.2,-19.3 -31.5,-20.5 -30.8,-21.5 L 3129,2187"
             style="fill:#add8e6;fill-opacity:1;fill-rule:nonzero;stroke:none"
             id="path62"
             inkscape:connector-curvature="0" /><path
             d="m 3129,3263 -37.6,-0.7 -37.5,-1.9 -37.4,-3.3 -37.2,-4.6 -37.1,-5.8 -36.9,-7.2 -36.6,-8.5 -36.3,-9.7 -35.9,-11 -35.5,-12.2 -35.1,-13.5 -34.5,-14.6 -34.1,-15.9 -33.5,-17 -32.8,-18.3 -32.2,-19.3 -31.5,-20.5 -30.8,-21.5 L 3129,2187 Z"
             style="fill:none;stroke:#000000;stroke-width:7.5;stroke-linecap:round;stroke-linejoin:round;stroke-miterlimit:10;stroke-dasharray:none;stroke-opacity:1"
             id="path64"
             inkscape:connector-curvature="0" /><path
             d="m 2796.5,3210.3 -16.6,51.2"
             style="fill:none;stroke:#000000;stroke-width:7.5;stroke-linecap:round;stroke-linejoin:round;stroke-miterlimit:10;stroke-dasharray:none;stroke-opacity:1"
             id="path66"
             inkscape:connector-curvature="0" /></g></g><g
         id="g68"><g
           id="g70"
           clip-path="url(#clipPath74)"><g
             id="g76"
             transform="scale(10)"><text
               transform="matrix(1,0,0,-1,170.98,334.16)"
               style="font-variant:normal;font-weight:normal;font-size:12px;font-family:Helvetica;-inkscape-font-specification:Helvetica;writing-mode:lr-tb;fill:#000000;fill-opacity:1;fill-rule:nonzero;stroke:none"
               id="text82"><tspan
                 x="0 8.0039997 12.180078 14.844078 18.180079 20.844078 26.844078 33.516079 36.852077 40.84808 47.520077 50.856079 57.528076 64.200081 68.196075 74.196075 80.86808 87.540077 91.536079 97.536079 101.53208"
                 y="0"
                 sodipodi:role="line"
                 id="tspan78">British (2 person(s))</tspan><tspan
                 x="81.328102 88.000099 94.672096"
                 y="14.4"
                 sodipodi:role="line"
                 id="tspan80">10%</tspan></text>
</g></g></g><g
         id="g84"><g
           id="g86"
           clip-path="url(#clipPath90)"><path
             d="m 2496.5,3057.5 -28.4,-21.4 -27.7,-22.3 -27,-23.2 -26.1,-24.1 -25.4,-25 -24.5,-25.7 -23.7,-26.6 -22.8,-27.4 -21.8,-28 -20.9,-28.8 -20,-29.5 -19,-30.1 -17.9,-30.7 -17,-31.3 -15.8,-31.8 -14.9,-32.4 -13.7,-32.8 -12.7,-33.2 -11.5,-33.7 L 3129,2187"
             style="fill:#ffe4e1;fill-opacity:1;fill-rule:nonzero;stroke:none"
             id="path92"
             inkscape:connector-curvature="0" /><path
             d="m 2496.5,3057.5 -28.4,-21.4 -27.7,-22.3 -27,-23.2 -26.1,-24.1 -25.4,-25 -24.5,-25.7 -23.7,-26.6 -22.8,-27.4 -21.8,-28 -20.9,-28.8 -20,-29.5 -19,-30.1 -17.9,-30.7 -17,-31.3 -15.8,-31.8 -14.9,-32.4 -13.7,-32.8 -12.7,-33.2 -11.5,-33.7 L 3129,2187 Z"
             style="fill:none;stroke:#000000;stroke-width:7.5;stroke-linecap:round;stroke-linejoin:round;stroke-miterlimit:10;stroke-dasharray:none;stroke-opacity:1"
             id="path94"
             inkscape:connector-curvature="0" /><path
             d="m 2258.5,2819.5 -43.5,31.6"
             style="fill:none;stroke:#000000;stroke-width:7.5;stroke-linecap:round;stroke-linejoin:round;stroke-miterlimit:10;stroke-dasharray:none;stroke-opacity:1"
             id="path96"
             inkscape:connector-curvature="0" /></g></g><g
         id="g98"><g
           id="g100"
           clip-path="url(#clipPath104)"><g
             id="g106"
             transform="scale(10)"><text
               transform="matrix(1,0,0,-1,105.783,291.16)"
               style="font-variant:normal;font-weight:normal;font-size:12px;font-family:Helvetica;-inkscape-font-specification:Helvetica;writing-mode:lr-tb;fill:#000000;fill-opacity:1;fill-rule:nonzero;stroke:none"
               id="text112"><tspan
                 x="0 8.0039997 14.676 21.348 24.011999 26.676001 32.675999 39.348 42.683998 46.68 53.352001 56.688 63.360001 70.031998 74.028 80.028 86.699997 93.372002 97.367996 103.368 107.364"
                 y="0"
                 sodipodi:role="line"
                 id="tspan108">English (2 person(s))</tspan><tspan
                 x="87.344902 94.016899 100.6889"
                 y="14.4"
                 sodipodi:role="line"
                 id="tspan110">10%</tspan></text>
</g></g></g><g
         id="g114"><g
           id="g116"
           clip-path="url(#clipPath120)"><path
             d="m 2105.7,2519.5 -10.5,-34 -9.3,-34.4 -8.1,-34.6 -7.1,-34.9 -5.8,-35.1 -4.7,-35.2 -3.5,-35.4 -2.4,-35.5 -1.2,-35.6 v -35.6 l 1.2,-35.6 2.4,-35.5 3.5,-35.4 4.7,-35.2 5.8,-35.1 7.1,-34.9 8.1,-34.6 9.3,-34.4 10.5,-34 L 3129,2187"
             style="fill:#e0ffff;fill-opacity:1;fill-rule:nonzero;stroke:none"
             id="path122"
             inkscape:connector-curvature="0" /><path
             d="m 2105.7,2519.5 -10.5,-34 -9.3,-34.4 -8.1,-34.6 -7.1,-34.9 -5.8,-35.1 -4.7,-35.2 -3.5,-35.4 -2.4,-35.5 -1.2,-35.6 v -35.6 l 1.2,-35.6 2.4,-35.5 3.5,-35.4 4.7,-35.2 5.8,-35.1 7.1,-34.9 8.1,-34.6 9.3,-34.4 10.5,-34 L 3129,2187 Z"
             style="fill:none;stroke:#000000;stroke-width:7.5;stroke-linecap:round;stroke-linejoin:round;stroke-miterlimit:10;stroke-dasharray:none;stroke-opacity:1"
             id="path124"
             inkscape:connector-curvature="0" /><path
             d="m 2053,2187 h -53.8"
             style="fill:none;stroke:#000000;stroke-width:7.5;stroke-linecap:round;stroke-linejoin:round;stroke-miterlimit:10;stroke-dasharray:none;stroke-opacity:1"
             id="path126"
             inkscape:connector-curvature="0" /></g></g><g
         id="g128"><g
           id="g130"
           clip-path="url(#clipPath134)"><g
             id="g136"
             transform="scale(10)"><text
               transform="matrix(1,0,0,-1,85.1871,221.59)"
               style="font-variant:normal;font-weight:normal;font-size:12px;font-family:Helvetica;-inkscape-font-specification:Helvetica;writing-mode:lr-tb;fill:#000000;fill-opacity:1;fill-rule:nonzero;stroke:none"
               id="text142"><tspan
                 x="0 7.3319998 11.328 18 24.672001 30.672001 37.344002 40.68 44.675999 51.348 54.683998 61.355999 68.028 72.024002 78.024002 84.695999 91.367996 95.363998 101.364 105.36"
                 y="0"
                 sodipodi:role="line"
                 id="tspan138">French (2 person(s))</tspan><tspan
                 x="85.341003 92.013 98.684998"
                 y="14.4"
                 sodipodi:role="line"
                 id="tspan140">10%</tspan></text>
</g></g></g><g
         id="g144"><g
           id="g146"
           clip-path="url(#clipPath150)"><path
             d="m 2105.7,1854.5 11.7,-34.3 12.9,-33.8 14.1,-33.4 15.2,-32.9 16.2,-32.3 17.4,-31.8 18.4,-31.2 19.4,-30.6 20.5,-29.9 21.4,-29.1 22.4,-28.5 23.4,-27.6 24.3,-26.9 25.2,-26 26,-25.2 26.9,-24.3 27.6,-23.4 28.5,-22.4 29.2,-21.4 29.8,-20.5 30.6,-19.4 31.2,-18.4 31.8,-17.4 32.3,-16.2 32.9,-15.2 33.4,-14.1 33.8,-12.9 34.3,-11.7 L 3129,2187"
             style="fill:#e6e6fa;fill-opacity:1;fill-rule:nonzero;stroke:none"
             id="path152"
             inkscape:connector-curvature="0" /><path
             d="m 2105.7,1854.5 11.7,-34.3 12.9,-33.8 14.1,-33.4 15.2,-32.9 16.2,-32.3 17.4,-31.8 18.4,-31.2 19.4,-30.6 20.5,-29.9 21.4,-29.1 22.4,-28.5 23.4,-27.6 24.3,-26.9 25.2,-26 26,-25.2 26.9,-24.3 27.6,-23.4 28.5,-22.4 29.2,-21.4 29.8,-20.5 30.6,-19.4 31.2,-18.4 31.8,-17.4 32.3,-16.2 32.9,-15.2 33.4,-14.1 33.8,-12.9 34.3,-11.7 L 3129,2187 Z"
             style="fill:none;stroke:#000000;stroke-width:7.5;stroke-linecap:round;stroke-linejoin:round;stroke-miterlimit:10;stroke-dasharray:none;stroke-opacity:1"
             id="path154"
             inkscape:connector-curvature="0" /><path
             d="m 2368.2,1426.2 -38.1,-38.1"
             style="fill:none;stroke:#000000;stroke-width:7.5;stroke-linecap:round;stroke-linejoin:round;stroke-miterlimit:10;stroke-dasharray:none;stroke-opacity:1"
             id="path156"
             inkscape:connector-curvature="0" /></g></g><g
         id="g158"><g
           id="g160"
           clip-path="url(#clipPath164)"><g
             id="g166"
             transform="scale(10)"><text
               transform="matrix(1,0,0,-1,113.85,137.9)"
               style="font-variant:normal;font-weight:normal;font-size:12px;font-family:Helvetica;-inkscape-font-specification:Helvetica;writing-mode:lr-tb;fill:#000000;fill-opacity:1;fill-rule:nonzero;stroke:none"
               id="text172"><tspan
                 x="0 9.3360004 16.007999 20.303904 30.299902 36.971901 43.643902 46.979904 50.975903 57.647903 60.983902 67.655899 74.327904 78.323906 84.323906 90.995903 97.6679 101.6639 107.6639 111.6599"
                 y="0"
                 sodipodi:role="line"
                 id="tspan168">German (3 person(s))</tspan><tspan
                 x="91.348396 98.020401 104.6924"
                 y="14.4"
                 sodipodi:role="line"
                 id="tspan170">15%</tspan></text>
</g></g></g><g
         id="g174"><g
           id="g176"
           clip-path="url(#clipPath180)"><path
             d="m 2796.5,1163.7 33,-10.2 33.2,-9 33.6,-8 33.8,-7 34,-5.8 34.2,-4.7 34.2,-3.7 34.4,-2.5 34.5,-1.4 34.5,-0.4 34.5,0.8 34.4,1.9 34.4,3 34.2,4 34.1,5.2 34,6.3 33.7,7.3 33.4,8.5 33.2,9.5 32.8,10.5 32.5,11.6 32.1,12.6 31.6,13.7 31.3,14.7 30.7,15.6 30.2,16.7 29.7,17.6 29.1,18.5 28.4,19.5 27.9,20.3 27.2,21.3 26.4,22.1 25.8,22.9 25,23.8 24.2,24.5 23.5,25.3 22.6,26.1 21.7,26.7 20.9,27.5 20,28.1 19.1,28.7 18.2,29.3 17.2,29.9 16.3,30.4 15.2,31 14.3,31.4 13.2,31.8 12.3,32.3 11.1,32.6 L 3129,2187"
             style="fill:#fff8db;fill-opacity:1;fill-rule:nonzero;stroke:none"
             id="path182"
             inkscape:connector-curvature="0" /><path
             d="m 2796.5,1163.7 33,-10.2 33.2,-9 33.6,-8 33.8,-7 34,-5.8 34.2,-4.7 34.2,-3.7 34.4,-2.5 34.5,-1.4 34.5,-0.4 34.5,0.8 34.4,1.9 34.4,3 34.2,4 34.1,5.2 34,6.3 33.7,7.3 33.4,8.5 33.2,9.5 32.8,10.5 32.5,11.6 32.1,12.6 31.6,13.7 31.3,14.7 30.7,15.6 30.2,16.7 29.7,17.6 29.1,18.5 28.4,19.5 27.9,20.3 27.2,21.3 26.4,22.1 25.8,22.9 25,23.8 24.2,24.5 23.5,25.3 22.6,26.1 21.7,26.7 20.9,27.5 20,28.1 19.1,28.7 18.2,29.3 17.2,29.9 16.3,30.4 15.2,31 14.3,31.4 13.2,31.8 12.3,32.3 11.1,32.6 L 3129,2187 Z"
             style="fill:none;stroke:#000000;stroke-width:7.5;stroke-linecap:round;stroke-linejoin:round;stroke-miterlimit:10;stroke-dasharray:none;stroke-opacity:1"
             id="path184"
             inkscape:connector-curvature="0" /><path
             d="m 3617.5,1228.3 24.4,-48"
             style="fill:none;stroke:#000000;stroke-width:7.5;stroke-linecap:round;stroke-linejoin:round;stroke-miterlimit:10;stroke-dasharray:none;stroke-opacity:1"
             id="path186"
             inkscape:connector-curvature="0" /></g></g><g
         id="g188"><g
           id="g190"
           clip-path="url(#clipPath194)"><g
             id="g196"
             transform="scale(10)"><text
               transform="matrix(1,0,0,-1,366.63,116.13)"
               style="font-variant:normal;font-weight:normal;font-size:12px;font-family:Helvetica;-inkscape-font-specification:Helvetica;writing-mode:lr-tb;fill:#000000;fill-opacity:1;fill-rule:nonzero;stroke:none"
               id="text202"><tspan
                 x="0 8.0039997 14.004 20.676001 24.011999 27.348 30.011999 36.012001 42.683998 46.02 50.015999 56.688 60.023998 66.695999 73.367996 77.363998 83.363998 90.036003 96.708 100.704 106.704 110.7"
                 y="0"
                 sodipodi:role="line"
                 id="tspan198">Scottish (5 person(s))</tspan><tspan
                 x="0 6.6719999 13.344"
                 y="14.4"
                 sodipodi:role="line"
                 id="tspan200">25%</tspan></text>
</g></g></g><g
         id="g204"><g
           id="g206"
           clip-path="url(#clipPath210)"><path
             d="m 4152.3,1854.5 11,35.9 9.7,36.3 8.5,36.6 7.2,36.9 5.8,37 4.6,37.3 3.3,37.4 1.9,37.5 0.7,37.6 H 3129"
             style="fill:#ffffff;fill-opacity:1;fill-rule:nonzero;stroke:none"
             id="path212"
             inkscape:connector-curvature="0" /><path
             d="m 4152.3,1854.5 11,35.9 9.7,36.3 8.5,36.6 7.2,36.9 5.8,37 4.6,37.3 3.3,37.4 1.9,37.5 0.7,37.6 H 3129 Z"
             style="fill:none;stroke:#000000;stroke-width:7.5;stroke-linecap:round;stroke-linejoin:round;stroke-miterlimit:10;stroke-dasharray:none;stroke-opacity:1"
             id="path214"
             inkscape:connector-curvature="0" /><path
             d="m 4191.8,2018.7 53.1,-8.4"
             style="fill:none;stroke:#000000;stroke-width:7.5;stroke-linecap:round;stroke-linejoin:round;stroke-miterlimit:10;stroke-dasharray:none;stroke-opacity:1"
             id="path216"
             inkscape:connector-curvature="0" /></g></g><g
         id="g218"><g
           id="g220"
           clip-path="url(#clipPath224)"><g
             id="g226"
             transform="scale(10)"><text
               transform="matrix(1,0,0,-1,429.8,203.08)"
               style="font-variant:normal;font-weight:normal;font-size:12px;font-family:Helvetica;-inkscape-font-specification:Helvetica;writing-mode:lr-tb;fill:#000000;fill-opacity:1;fill-rule:nonzero;stroke:none"
               id="text232"><tspan
                 x="0 8.0039997 14.676 21.348 28.02 30.684 36.683998 43.355999 46.692001 50.688 57.360001 60.695999 67.367996 74.040001 78.036003 84.036003 90.708 97.379997 101.376 107.376 111.372"
                 y="0"
                 sodipodi:role="line"
                 id="tspan228">Spanish (1 person(s))</tspan><tspan
                 x="0 6.6719999"
                 y="14.4"
                 sodipodi:role="line"
                 id="tspan230">5%</tspan></text>
</g></g></g></g></g></svg>